<svg width="1451" height="288" viewBox="0 0 1451 288" fill="none" xmlns="http://www.w3.org/2000/svg">
<path d="M68.2996 0.613464C73.5744 -0.316012 106.653 0.0845851 113.696 0.0928372L207.883 0.187343C239.363 0.474663 265.012 11.2631 280.279 40.5645C288.573 56.4834 287.69 71.6266 287.51 88.7713C274.189 88.5522 254.112 89.4194 241.497 88.2694C243.42 43.3312 227.645 47.3679 190.104 47.3371L144.46 47.3288C120.524 47.3364 96.7486 47.1436 72.6811 47.6724C58.3171 47.9883 48.3819 59.9087 49.1604 74.0924C49.9201 87.943 64.8646 97.3879 74.8126 105.625C112.013 132.718 148.216 164.423 185.154 192.112C188.057 194.289 191.864 197.256 191.356 200.993C191.028 201.294 190.7 201.597 190.373 201.898C175.763 202.678 130.767 202.276 119.083 202.234C117.135 200.872 115.086 199.37 113.205 197.912C85.5301 176.456 58.3689 154.35 30.7224 132.856C24.8941 128.325 18.1794 122.803 13.6546 116.98C-5.81964 91.9197 -3.74964 52.8877 15.3249 28.2127C28.8639 10.8077 47.1811 3.2361 68.2996 0.613464Z" fill="#FF9500"/>
<path d="M132.899 76.3767C138.977 76.0608 157.533 75.3639 162.377 77.9723C186.854 91.1515 209.978 109.017 233.5 123.88C263.008 142.526 286.805 158.982 287.987 197.465C288.731 221.647 285.92 242.777 268.634 261.507C253.836 277.779 234.148 286.484 212.213 287.317C189.619 287.639 166.567 287.303 143.914 287.324L98.4009 287.467C67.2991 287.568 48.2109 288.845 23.0672 265.807C2.03115 244.782 2.39865 224.313 2.2854 197.558C16.2977 197.116 32.0454 197.431 46.2504 197.332C46.4184 204.676 46.0846 212.761 48.0279 219.865C49.9329 226.828 53.9791 232.343 60.3226 235.868C63.5311 237.651 66.9609 238.986 70.6321 239.316C89.4189 241.005 110.572 239.578 129.567 239.575C147.607 239.571 211.071 241.604 223.8 237.932C231.237 235.786 237.767 230.869 241.418 223.98C245.516 216.247 245.497 207.148 245.226 198.621C244.886 187.92 244.535 179.357 239.08 169.72C236.164 164.569 232.385 160.06 228.145 155.948C221.93 149.919 214.634 144.649 207.8 139.334C190.134 125.598 171.725 112.73 153.617 99.5746C146.522 94.4194 138.555 89.4111 132.068 83.5349C130.925 82.4997 130.464 81.7232 130.028 80.2581C130.833 77.5207 130.29 78.5335 132.899 76.3767Z" fill="#6C63FF"/>
<path d="M1229.22 119.355C1242.19 118.207 1256.08 123.08 1265.61 132.094C1286.8 152.152 1287.18 197.723 1266.77 218.385C1257.4 227.876 1245.25 232.253 1231.93 232.077C1217.29 231.884 1209.16 227.022 1199.23 216.955C1198.97 226.744 1199.13 237.168 1199.1 247.007L1199.2 271.378C1191.49 271.207 1183.36 271.39 1175.63 271.445C1174.36 223.492 1175.49 171.258 1175.43 122.865C1182.91 122.97 1190.77 122.787 1198.29 122.727L1198.43 137.093L1198.74 136.698C1207.77 125.15 1214.65 121.143 1229.22 119.355ZM1232.78 212.474C1239.65 211.402 1246.32 208.657 1250.02 202.555C1263.72 179.949 1257.59 136.857 1223.91 140.362C1216.84 141.402 1210.37 144.358 1206.26 150.378C1196.15 165.169 1195.44 195.892 1211.35 207.251C1217.93 211.952 1225.09 212.578 1232.78 212.474Z" fill="white"/>
<path d="M637.548 119.347C656.425 117.629 665.534 122.561 675.522 137.989C677.336 135.49 679.488 132.55 681.567 130.304C694.803 116.004 722.292 114.978 736.329 128.888C741.059 133.626 744.391 139.576 745.959 146.085C748.371 155.808 747.668 174.551 747.636 185.381L747.576 230.284C739.173 230.109 731.814 230.083 723.423 230.385C723.932 206.723 724.193 180.959 722.562 157.733C720.881 133.779 683.049 135.301 680.166 159.167C678.355 174.165 679.136 189.6 679.221 204.449L679.281 230.124L654.563 230.189L654.639 185.03C654.648 170.423 658.236 139.979 635.757 140.699C609.472 141.541 612.382 172.014 612.419 190.483L612.546 230.236C604.368 230.116 596.619 229.945 588.432 230.415L588.372 122.761C596.362 122.95 604.356 122.881 612.341 122.553L612.342 136.131C620.462 126.105 624.396 122.309 637.548 119.347Z" fill="white"/>
<path d="M506.118 80.3745C526.023 77.8629 550.581 82.2657 562.2 100.205C566.792 107.295 567.753 113.151 569.126 121.2C561.849 121.204 549.923 121.619 542.862 122.648C539.221 99.1388 510.84 93.5949 493.667 107.29C490.142 110.102 487.458 116.47 487.845 121.421C489.437 141.772 519.664 142.546 534.407 148.544C571.479 158.651 585.06 188.516 558.115 219.419C549.869 228.875 528.757 233.75 514.883 233.437C484.448 233.141 460.879 221.037 455.146 189.38C462.365 188.554 474.099 188.396 481.675 188.049C482.764 194.84 485.261 201.137 490.743 205.521C503.405 215.643 531.549 216.04 542.232 203.095C545.539 199.061 547.04 193.842 546.383 188.666C544.37 172.511 519.468 168.992 506.786 165.282C488.341 159.886 464.062 152.564 461.372 129.861C458.014 101.515 479.289 83.3812 506.118 80.3745Z" fill="#FF9500"/>
<path d="M1091.58 80.3632C1121.38 77.1202 1149.37 88.6648 1152.84 121.361C1143.94 121.438 1135.69 121.854 1126.84 122.35C1123.07 105.379 1113.03 101.064 1096.78 100.213C1084.83 99.5874 1070.64 109.059 1072.53 121.587C1076.53 148.211 1129.3 143.286 1145.35 162.305C1152.53 170.816 1155.24 175.564 1155.49 186.813C1155.76 220.313 1127.18 233.413 1098.25 233.554C1068.51 232.717 1044.1 221.146 1039.9 189.349C1047.84 188.628 1057.96 188.476 1066.08 188.123C1067.27 195.526 1069.08 200.299 1074.88 205.445C1086.43 215.707 1116.09 216.184 1126 203.595C1129.4 199.312 1130.92 193.836 1130.21 188.415C1126.35 160.009 1048.39 170.835 1045.67 129.232C1043.66 98.3789 1063.41 83.8321 1091.58 80.3632Z" fill="#6C63FF"/>
<path d="M812.445 119.369L812.895 119.344C826.155 118.692 840.682 121.279 850.732 130.541C865.665 144.302 863.062 168.533 863.002 187.204C862.83 201.537 862.89 215.871 863.197 230.201C855.99 230.195 848.79 230.226 841.582 230.294C841.29 225.798 840.682 220.816 840.232 216.29C821.235 238.013 780.78 240.146 766.665 213.014C765.322 209.645 764.49 204.839 764.347 201.244C762.945 165.755 813.607 165.469 837.727 164.441C837.78 160.106 838.057 154.003 835.95 150.189C825.817 131.801 801.66 134.248 794.88 153.852C786.337 152.603 779.655 152.182 771.067 151.91C777.315 129.579 790.042 121.844 812.445 119.369ZM799.065 212.075C815.85 215.978 833.88 212.313 838.08 193.084C838.822 189.69 838.987 186.467 837.39 183.263C835.312 182.475 832.657 183.039 830.332 183.282C819.48 183.757 800.55 183.512 793.057 191.993C786.337 199.603 791.602 207.9 799.065 212.075Z" fill="white"/>
<path d="M1003.13 95.4367L1004.67 95.4614C1005.73 97.6669 1005.37 118.183 1005.36 121.729C1013.5 121.358 1022.95 121.482 1031.2 121.387L1031.22 139.418C1022.63 139.197 1014.11 139.711 1005.34 139.374C1005.31 157.94 1005.25 176.627 1005.25 195.192C1005.25 198.985 1006.39 207.05 1009.48 209.495C1014.74 213.669 1024.83 211.774 1031.12 211.101L1031.26 230.566C1025.77 231.264 1021.73 231.486 1016.26 231.705C1014.5 231.707 1012.74 231.68 1010.98 231.628C976.605 230.576 980.257 203.598 980.145 177.704C980.092 165.071 979.905 152.37 980.437 139.729C973.83 139.536 967.215 139.408 960.607 139.343C960.48 133.494 960.555 127.403 960.547 121.531C967.35 121.494 973.567 121.517 980.362 121.817C980.55 114.225 980.392 106.159 980.19 98.5604C987.99 97.5709 995.152 96.2199 1003.13 95.4367Z" fill="white"/>
<path d="M1425.89 95.3804L1426.59 95.3489C1427.65 97.2206 1427.23 118.476 1427.23 122.276C1434.7 121.91 1442 122.665 1449.43 121.407L1449.52 139.365L1427.14 139.46C1427.06 158.905 1426.78 178.401 1427.17 197.835C1427.5 214.596 1437.85 212.415 1450.25 211.2C1450.34 217.596 1450.59 223.989 1450.99 230.373C1443.43 231.244 1438.83 231.605 1431.25 231.623C1400.02 230.269 1403.05 206.827 1403.03 183.537L1402.99 139.362L1382.23 139.563L1382.29 121.459C1389.25 121.508 1396.12 121.426 1403.04 122.111L1403.02 99.0855C1410.4 97.4201 1418.36 96.4412 1425.89 95.3804Z" fill="white"/>
<path d="M934.38 119.34C939.277 118.863 943.417 119.407 948.277 119.856L948.607 142.236C920.835 138.715 905.835 148.922 906.18 178.129C906.382 195.272 906.33 212.976 906.397 230.171L882.682 230.059L882.292 229.769C880.372 224.35 882.022 136.608 881.647 122.805C889.777 122.946 897.907 122.889 906.03 122.632C905.887 127.988 906.292 132.402 905.97 137.991C907.065 136.391 908.197 134.815 909.36 133.262C916.612 123.677 922.98 120.965 934.38 119.34Z" fill="white"/>
<path d="M1299.55 80.9191C1307.47 81.0759 1315.41 81.0061 1323.34 80.7091C1322.52 128.001 1322.6 183.047 1323.42 230.301C1315.75 229.92 1307.21 230.049 1299.55 230.396V80.9191Z" fill="white"/>
<path d="M1347.59 122.866C1355.47 122.945 1363.74 123.188 1371.55 122.471C1371.4 158.369 1371.46 194.268 1371.73 230.165C1363.62 230.091 1355.51 230.144 1347.4 230.326C1348.39 195.483 1347.23 158.099 1347.59 122.866Z" fill="white"/>
<path d="M1358.81 78.7593C1365.01 79.3752 1369.88 80.9536 1372 87.6633C1372.96 90.7788 1372.63 94.1546 1371.05 97.0135C1368.73 101.27 1365.57 102.332 1361.34 103.59C1357.9 103.504 1355.12 103.239 1352.15 101.3C1349.24 99.3864 1347.25 96.3631 1346.63 92.937C1346.09 89.8628 1346.83 86.7023 1348.66 84.1779C1351.43 80.331 1354.54 79.4998 1358.81 78.7593Z" fill="white"/>
</svg>
