<svg width="289" height="288" viewBox="0 0 289 288" fill="none" xmlns="http://www.w3.org/2000/svg">
<path d="M68.2996 0.613464C73.5744 -0.316012 106.653 0.0845851 113.696 0.0928372L207.883 0.187343C239.363 0.474663 265.012 11.2631 280.279 40.5645C288.573 56.4834 287.69 71.6266 287.51 88.7713C274.189 88.5522 254.112 89.4194 241.497 88.2694C243.42 43.3312 227.645 47.3679 190.104 47.3371L144.46 47.3288C120.524 47.3364 96.7486 47.1436 72.6811 47.6724C58.3171 47.9883 48.3819 59.9087 49.1604 74.0924C49.9201 87.943 64.8646 97.3879 74.8126 105.625C112.013 132.718 148.216 164.423 185.154 192.112C188.057 194.289 191.864 197.256 191.356 200.993C191.028 201.294 190.7 201.597 190.373 201.898C175.763 202.678 130.767 202.276 119.083 202.234C117.135 200.872 115.086 199.37 113.205 197.912C85.5301 176.456 58.3689 154.35 30.7224 132.856C24.8941 128.325 18.1794 122.803 13.6546 116.98C-5.81964 91.9197 -3.74964 52.8877 15.3249 28.2127C28.8639 10.8077 47.1811 3.2361 68.2996 0.613464Z" fill="#FF9500"/>
<path d="M132.899 76.3767C138.977 76.0608 157.533 75.3639 162.377 77.9723C186.854 91.1515 209.978 109.017 233.5 123.88C263.008 142.526 286.805 158.982 287.987 197.465C288.731 221.647 285.92 242.777 268.634 261.507C253.836 277.779 234.148 286.484 212.213 287.317C189.619 287.639 166.567 287.303 143.914 287.324L98.4009 287.467C67.2991 287.568 48.2109 288.845 23.0672 265.807C2.03115 244.782 2.39865 224.313 2.2854 197.558C16.2977 197.116 32.0454 197.431 46.2504 197.332C46.4184 204.676 46.0846 212.761 48.0279 219.865C49.9329 226.828 53.9791 232.343 60.3226 235.868C63.5311 237.651 66.9609 238.986 70.6321 239.316C89.4189 241.005 110.572 239.578 129.567 239.575C147.607 239.571 211.071 241.604 223.8 237.932C231.237 235.786 237.767 230.869 241.418 223.98C245.516 216.247 245.497 207.148 245.226 198.621C244.886 187.92 244.535 179.357 239.08 169.72C236.164 164.569 232.385 160.06 228.145 155.948C221.93 149.919 214.634 144.649 207.8 139.334C190.134 125.598 171.725 112.73 153.617 99.5746C146.522 94.4194 138.555 89.4111 132.068 83.5349C130.925 82.4997 130.464 81.7232 130.028 80.2581C130.833 77.5207 130.29 78.5335 132.899 76.3767Z" fill="#6C63FF"/>
</svg>
