<svg width="1366" height="288" viewBox="0 0 1366 288" fill="none" xmlns="http://www.w3.org/2000/svg">
<path d="M68.2996 0.613464C73.5744 -0.316012 106.653 0.0845851 113.696 0.0928372L207.883 0.187343C239.363 0.474663 265.012 11.2631 280.279 40.5645C288.573 56.4834 287.69 71.6266 287.51 88.7713C274.189 88.5522 254.112 89.4194 241.497 88.2694C243.42 43.3312 227.645 47.3679 190.104 47.3371L144.46 47.3288C120.524 47.3364 96.7486 47.1436 72.6811 47.6724C58.3171 47.9883 48.3819 59.9087 49.1604 74.0924C49.9201 87.943 64.8646 97.3879 74.8126 105.625C112.013 132.718 148.216 164.423 185.154 192.112C188.057 194.289 191.864 197.256 191.356 200.993C191.028 201.294 190.7 201.597 190.373 201.898C175.763 202.678 130.767 202.276 119.083 202.234C117.135 200.872 115.086 199.37 113.205 197.912C85.5301 176.456 58.3689 154.35 30.7224 132.856C24.8941 128.325 18.1794 122.803 13.6546 116.98C-5.81964 91.9197 -3.74964 52.8877 15.3249 28.2127C28.8639 10.8077 47.1811 3.2361 68.2996 0.613464Z" fill="#FF9500"/>
<path d="M132.899 76.3767C138.977 76.0608 157.533 75.3639 162.377 77.9723C186.854 91.1515 209.978 109.017 233.5 123.88C263.008 142.526 286.805 158.982 287.987 197.465C288.731 221.647 285.92 242.777 268.634 261.507C253.836 277.779 234.148 286.484 212.213 287.317C189.619 287.639 166.567 287.303 143.914 287.324L98.4009 287.467C67.2991 287.568 48.2109 288.845 23.0672 265.807C2.03115 244.782 2.39865 224.313 2.2854 197.558C16.2977 197.116 32.0454 197.431 46.2504 197.332C46.4184 204.676 46.0846 212.761 48.0279 219.865C49.9329 226.828 53.9791 232.343 60.3226 235.868C63.5311 237.651 66.9609 238.986 70.6321 239.316C89.4189 241.005 110.572 239.578 129.567 239.575C147.607 239.571 211.071 241.604 223.8 237.932C231.237 235.786 237.767 230.869 241.418 223.98C245.516 216.247 245.497 207.148 245.226 198.621C244.886 187.92 244.535 179.357 239.08 169.72C236.164 164.569 232.385 160.06 228.145 155.948C221.93 149.919 214.634 144.649 207.8 139.334C190.134 125.598 171.725 112.73 153.617 99.5746C146.522 94.4194 138.555 89.4111 132.068 83.5349C130.925 82.4997 130.464 81.7232 130.028 80.2581C130.833 77.5207 130.29 78.5335 132.899 76.3767Z" fill="#6C63FF"/>
<path d="M1144.22 109.355C1157.19 108.207 1171.08 113.08 1180.61 122.094C1201.8 142.152 1202.18 187.723 1181.77 208.385C1172.4 217.876 1160.25 222.253 1146.93 222.077C1132.29 221.884 1124.16 217.022 1114.23 206.955C1113.97 216.744 1114.13 227.168 1114.1 237.007L1114.2 261.378C1106.49 261.207 1098.36 261.39 1090.63 261.445C1089.36 213.492 1090.49 161.258 1090.43 112.865C1097.91 112.97 1105.77 112.787 1113.29 112.727L1113.43 127.093L1113.74 126.698C1122.77 115.15 1129.65 111.143 1144.22 109.355ZM1147.78 202.474C1154.65 201.402 1161.32 198.657 1165.02 192.555C1178.72 169.949 1172.59 126.857 1138.91 130.362C1131.84 131.402 1125.37 134.358 1121.26 140.378C1111.15 155.169 1110.44 185.892 1126.35 197.251C1132.93 201.952 1140.09 202.578 1147.78 202.474Z" fill="#2F3C53"/>
<path d="M552.548 109.347C571.425 107.629 580.534 112.561 590.522 127.989C592.336 125.49 594.488 122.55 596.567 120.304C609.803 106.004 637.292 104.978 651.329 118.888C656.059 123.626 659.391 129.576 660.959 136.085C663.371 145.808 662.668 164.551 662.636 175.381L662.576 220.284C654.173 220.109 646.814 220.083 638.423 220.385C638.932 196.723 639.193 170.959 637.562 147.733C635.881 123.779 598.049 125.301 595.166 149.167C593.355 164.165 594.136 179.6 594.221 194.449L594.281 220.124L569.563 220.189L569.639 175.03C569.648 160.423 573.236 129.979 550.757 130.699C524.472 131.541 527.382 162.014 527.419 180.483L527.546 220.236C519.368 220.116 511.619 219.945 503.432 220.415L503.372 112.761C511.362 112.95 519.356 112.881 527.341 112.553L527.342 126.131C535.462 116.105 539.396 112.309 552.548 109.347Z" fill="#2F3C53"/>
<path d="M421.118 70.3745C441.023 67.8629 465.581 72.2657 477.2 90.2048C481.792 97.2948 482.753 103.151 484.126 111.2C476.849 111.204 464.923 111.619 457.862 112.648C454.221 89.1388 425.84 83.5949 408.668 97.2903C405.142 100.102 402.458 106.47 402.845 111.421C404.438 131.772 434.664 132.546 449.407 138.544C486.479 148.651 500.06 178.516 473.115 209.419C464.869 218.875 443.757 223.75 429.883 223.437C399.449 223.141 375.879 211.037 370.146 179.38C377.365 178.554 389.099 178.396 396.675 178.049C397.764 184.84 400.261 191.137 405.743 195.521C418.405 205.643 446.549 206.04 457.232 193.095C460.539 189.061 462.041 183.842 461.383 178.666C459.371 162.511 434.468 158.992 421.786 155.282C403.341 149.886 379.062 142.564 376.373 119.861C373.014 91.5154 394.289 73.3812 421.118 70.3745Z" fill="#FF9500"/>
<path d="M1006.58 70.3632C1036.38 67.1202 1064.37 78.6648 1067.84 111.361C1058.94 111.438 1050.69 111.854 1041.84 112.35C1038.07 95.3788 1028.03 91.0638 1011.78 90.2131C999.83 89.5874 985.64 99.0585 987.53 111.587C991.535 138.211 1044.3 133.286 1060.35 152.305C1067.53 160.816 1070.24 165.564 1070.49 176.813C1070.76 210.313 1042.18 223.413 1013.25 223.554C983.51 222.717 959.105 211.146 954.905 179.349C962.84 178.628 972.965 178.476 981.08 178.123C982.272 185.526 984.08 190.299 989.877 195.445C1001.43 205.707 1031.09 206.184 1041 193.595C1044.4 189.312 1045.92 183.836 1045.21 178.415C1041.35 150.009 963.387 160.835 960.672 119.232C958.662 88.3789 978.41 73.8321 1006.58 70.3632Z" fill="#6C63FF"/>
<path d="M727.445 109.369L727.895 109.344C741.155 108.692 755.682 111.279 765.732 120.541C780.665 134.302 778.062 158.533 778.002 177.204C777.83 191.537 777.89 205.871 778.197 220.201C770.99 220.195 763.79 220.226 756.582 220.294C756.29 215.798 755.682 210.816 755.232 206.29C736.235 228.013 695.78 230.146 681.665 203.014C680.322 199.645 679.49 194.839 679.347 191.244C677.945 155.755 728.607 155.469 752.727 154.441C752.78 150.106 753.057 144.003 750.95 140.189C740.817 121.801 716.66 124.248 709.88 143.852C701.337 142.603 694.655 142.182 686.067 141.91C692.315 119.579 705.042 111.844 727.445 109.369ZM714.065 202.075C730.85 205.978 748.88 202.313 753.08 183.084C753.822 179.69 753.987 176.467 752.39 173.263C750.312 172.475 747.657 173.039 745.332 173.282C734.48 173.757 715.55 173.512 708.057 181.993C701.337 189.603 706.602 197.9 714.065 202.075Z" fill="#2F3C53"/>
<path d="M918.132 85.4367L919.67 85.4614C920.735 87.6669 920.375 108.183 920.36 111.729C928.497 111.358 937.955 111.482 946.197 111.387L946.22 129.418C937.632 129.197 929.112 129.711 920.337 129.374C920.307 147.94 920.255 166.627 920.247 185.192C920.247 188.985 921.395 197.05 924.485 199.495C929.742 203.669 939.83 201.774 946.122 201.101L946.265 220.566C940.775 221.264 936.732 221.486 931.257 221.705C929.502 221.707 927.74 221.68 925.985 221.628C891.605 220.576 895.257 193.598 895.145 167.704C895.092 155.071 894.905 142.37 895.437 129.729C888.83 129.536 882.215 129.408 875.607 129.343C875.48 123.494 875.555 117.403 875.547 111.531C882.35 111.494 888.567 111.517 895.362 111.817C895.55 104.225 895.392 96.159 895.19 88.5604C902.99 87.5709 910.152 86.2199 918.132 85.4367Z" fill="#2F3C53"/>
<path d="M1340.89 85.3804L1341.59 85.3489C1342.65 87.2206 1342.23 108.476 1342.23 112.276C1349.7 111.91 1357 112.665 1364.43 111.407L1364.52 129.365L1342.14 129.46C1342.06 148.905 1341.78 168.401 1342.17 187.835C1342.5 204.596 1352.85 202.415 1365.25 201.2C1365.34 207.596 1365.59 213.989 1365.99 220.373C1358.43 221.244 1353.83 221.605 1346.25 221.623C1315.02 220.269 1318.05 196.827 1318.03 173.537L1317.99 129.362L1297.23 129.563L1297.29 111.459C1304.25 111.508 1311.12 111.426 1318.04 112.111L1318.02 89.0855C1325.4 87.4201 1333.36 86.4412 1340.89 85.3804Z" fill="#2F3C53"/>
<path d="M849.38 109.34C854.277 108.863 858.417 109.407 863.277 109.856L863.607 132.236C835.835 128.715 820.835 138.922 821.18 168.129C821.382 185.272 821.33 202.976 821.397 220.171L797.682 220.059L797.292 219.769C795.372 214.35 797.022 126.608 796.647 112.805C804.777 112.946 812.907 112.889 821.03 112.632C820.887 117.988 821.292 122.402 820.97 127.991C822.065 126.391 823.197 124.815 824.36 123.262C831.612 113.677 837.98 110.965 849.38 109.34Z" fill="#2F3C53"/>
<path d="M1214.55 70.9191C1222.47 71.0759 1230.41 71.0061 1238.34 70.7091C1237.52 118.001 1237.6 173.047 1238.42 220.301C1230.75 219.92 1222.21 220.049 1214.55 220.396V70.9191Z" fill="#2F3C53"/>
<path d="M1262.59 112.866C1270.47 112.945 1278.74 113.188 1286.55 112.471C1286.4 148.369 1286.46 184.268 1286.73 220.165C1278.62 220.091 1270.51 220.144 1262.4 220.326C1263.39 185.483 1262.23 148.099 1262.59 112.866Z" fill="#2F3C53"/>
<path d="M1273.81 68.7593C1280.01 69.3752 1284.88 70.9536 1287 77.6633C1287.96 80.7788 1287.63 84.1546 1286.05 87.0135C1283.73 91.2701 1280.57 92.3316 1276.34 93.5904C1272.9 93.5041 1270.12 93.2386 1267.15 91.3001C1264.24 89.3864 1262.25 86.3631 1261.63 82.937C1261.09 79.8628 1261.83 76.7023 1263.66 74.1779C1266.43 70.331 1269.54 69.4998 1273.81 68.7593Z" fill="#2F3C53"/>
</svg>
